# xmcd
#
# Track frame offsets:
#	150
#	23054
#	42785
#	69727
#	87957
#	104980
#	121739
#	142626
#	164757
#	181851
#	197232
#	219351
#	240906
#
# Disc length: 3475 seconds
#
# Revision: 0
# Processed by: cddbd v1.4PL0 Copyright (c) Steve Scherf et al.
# Submitted via: dBpowerAMP V4.0
#
DISCID=ae0d910d
DTITLE=Pat Green - Three Days
DYEAR=1900
DGENRE=Country
TTITLE0=Carry On
TTITLE1=Count Your Blessings
TTITLE2=Crazy
TTITLE3=Galleywinter
TTITLE4=South Bound
TTITLE5=Take Me Out To A Dancehall
TTITLE6=Texas On My Mind
TTITLE7=Threadbare Gypsy Soul
TTITLE8=Three Days
TTITLE9=We All Got Our Reasons
TTITLE10=Whiskey
TTITLE11=Who's To Say
TTITLE12=Wrong Side Of Town
EXTD=
EXTT0=
EXTT1=
EXTT2=
EXTT3=
EXTT4=
EXTT5=
EXTT6=
EXTT7=
EXTT8=
EXTT9=
EXTT10=
EXTT11=
EXTT12=
PLAYORDER=
